<svg width="48" height="48" viewBox="0 0 48 48" fill="none" xmlns="http://www.w3.org/2000/svg">
<path d="M40.3228 32.6156C39.7041 32.0437 38.7947 31.9031 38.0166 31.7719C36.9384 31.5938 36.5259 31.3969 35.8978 30.8344C34.5572 29.6437 34.5572 27.9188 35.8978 26.7281L38.7384 24.2063C43.0884 20.3625 43.0884 14.0625 38.7384 10.2188C35.5322 7.39687 31.2291 6 26.7572 6C21.5353 6 16.0791 7.90312 11.8697 11.6344C4.04156 18.5531 4.04156 29.8875 11.8697 36.8063C15.7603 40.2469 21.0103 41.9625 26.2041 42H26.3634C31.5572 42 36.6759 40.3219 40.3134 37.0875C41.6634 35.8969 41.4375 33.6562 40.3228 32.6156Z" fill="#B19EED"/>
<path d="M13.5 22.5C15.1569 22.5 16.5 21.1569 16.5 19.5C16.5 17.8431 15.1569 16.5 13.5 16.5C11.8431 16.5 10.5 17.8431 10.5 19.5C10.5 21.1569 11.8431 22.5 13.5 22.5Z" fill="white"/>
<path d="M14.25 32.1562C15.9069 32.1562 17.25 30.8131 17.25 29.1562C17.25 27.4994 15.9069 26.1562 14.25 26.1562C12.5931 26.1562 11.25 27.4994 11.25 29.1562C11.25 30.8131 12.5931 32.1562 14.25 32.1562Z" fill="white"/>
<path d="M21 16.5C22.6569 16.5 24 15.1569 24 13.5C24 11.8431 22.6569 10.5 21 10.5C19.3431 10.5 18 11.8431 18 13.5C18 15.1569 19.3431 16.5 21 16.5Z" fill="white"/>
<path d="M24 38.9062C26.4853 38.9062 28.5 36.8915 28.5 34.4062C28.5 31.921 26.4853 29.9062 24 29.9062C21.5147 29.9062 19.5 31.921 19.5 34.4062C19.5 36.8915 21.5147 38.9062 24 38.9062Z" fill="white"/>
<path d="M30.75 16.5C32.4069 16.5 33.75 15.1569 33.75 13.5C33.75 11.8431 32.4069 10.5 30.75 10.5C29.0931 10.5 27.75 11.8431 27.75 13.5C27.75 15.1569 29.0931 16.5 30.75 16.5Z" fill="white"/>
</svg>
